# xmcd
#
# Track frame offsets: 
#        150
#        46080
#        64270
#        84388
#        106673
#        130145
#        158063
#        202358
#        225320
#        243318
#        261643
#        288480
#        304328
#
# Disc length: 4343 seconds
#
# Revision: 1
# Processed by: cddbd v1.5.2PL0 Copyright (c) Steve Scherf et al.
# Submitted via: ExactAudioCopy v0.99pb3
#
DISCID=b510f50d
DTITLE=Livin' Blues - Snakedance Live 1989
DYEAR=1900
DGENRE=
TTITLE0=Hoochie Coochie Man/Mojo Workin'
TTITLE1=Free Man
TTITLE2=Hoodoo Man
TTITLE3=The Snake
TTITLE4=Homework
TTITLE5=Midnight Café
TTITLE6=Black Night
TTITLE7=Border Line
TTITLE8=Wang Dang Doodle/LB Boogie
TTITLE9=My Babe
TTITLE10=Parachute Jump/Jump Five
TTITLE11=After You've Gone
TTITLE12=Two Train
EXTD=
EXTT0=
EXTT1=
EXTT2=
EXTT3=
EXTT4=
EXTT5=
EXTT6=
EXTT7=
EXTT8=
EXTT9=
EXTT10=
EXTT11=
EXTT12=
PLAYORDER=
